# xmcd
#
# Track frame offsets: 
#        150
#        12942
#        32173
#        47119
#        62210
#        78296
#        93184
#        109066
#        122248
#        138316
#        155041
#        171217
#        192730
#        206417
#        227442
#
# Disc length: 3447 seconds
#
# Revision: 0
# Processed by: cddbd v1.5.2PL0 Copyright (c) Steve Scherf et al.
# Submitted via: ExactAudioCopy v0.99pb5
#
DISCID=ca0d750f
DTITLE=Alabama - The Music Of Alabama [Disc 3]
DYEAR=2009
DGENRE=Country
TTITLE0=I'm In A Hurry (And Don't Know Why)
TTITLE1=Once Upon A Lifetime
TTITLE2=Hometown Honeymoon
TTITLE3=Reckless
TTITLE4=T.L.C. A.S.A.P.
TTITLE5=We Can't Love Like This Anymore
TTITLE6=Give Me One More Shot
TTITLE7=She Ain't Your Ordinary Girl
TTITLE8=In Pictures
TTITLE9=The Maker Said Take Her
TTITLE10=Sad Lookin' Moon
TTITLE11=Dancin', Shaggin' On The Boulevard
TTITLE12=How Do You Fall In Love
TTITLE13=Gos Must Have Spent A Little More Time On You (featuring *NSY
TTITLE13=NC)
TTITLE14=When It All Goes South
EXTD=
EXTT0=
EXTT1=
EXTT2=
EXTT3=
EXTT4=
EXTT5=
EXTT6=
EXTT7=
EXTT8=
EXTT9=
EXTT10=
EXTT11=
EXTT12=
EXTT13=
EXTT14=
PLAYORDER=
